<?xml version="1.0" encoding="utf-8"?>
<!-- Generator: Adobe Illustrator 16.0.0, SVG Export Plug-In . SVG Version: 6.00 Build 0)  -->
<!DOCTYPE svg PUBLIC "-//W3C//DTD SVG 1.1//EN" "http://www.w3.org/Graphics/SVG/1.1/DTD/svg11.dtd">
<svg version="1.1" id="Layer_1" xmlns="http://www.w3.org/2000/svg" xmlns:xlink="http://www.w3.org/1999/xlink" x="0px" y="0px"
	 width="231px" height="266.099px" viewBox="0 0 231 266.099" enable-background="new 0 0 231 266.099" xml:space="preserve">
<g>
	
		<polygon fill="none" stroke="#FFFFFF" stroke-width="3" stroke-linecap="round" stroke-linejoin="round" stroke-miterlimit="10" points="
		57.5,152.818 63.5,133.818 44.667,121.054 41.397,104.318 93,83.318 108.077,56.222 123.5,82.105 123.5,152.818 117.532,165.02 
		112.238,152.818 104.526,165.02 98.962,152.818 92.104,165.02 86.46,152.818 80.079,165.02 73.05,152.457 64.765,165.02 	"/>
	
		<polygon fill="none" stroke="#FFFFFF" stroke-width="3" stroke-linecap="round" stroke-linejoin="round" stroke-miterlimit="10" points="
		92.653,90.146 82.101,96.176 92.653,102.206 102.704,96.176 	"/>
	
		<polyline fill="none" stroke="#FFFFFF" stroke-width="3" stroke-linecap="round" stroke-linejoin="round" stroke-miterlimit="10" points="
		102.704,81.603 108.231,72.558 113.759,81.603 	"/>
	<circle fill="#FFFFFF" stroke="#FFFFFF" stroke-miterlimit="10" cx="92.656" cy="96.44" r="3.007"/>
	<polygon fill="#FFFFFF" stroke="#FFFFFF" stroke-miterlimit="10" points="45.47,122.164 59.99,97.318 41,103.318 	"/>
	<g>
		
			<line fill="none" stroke="#FFFFFF" stroke-linecap="round" stroke-linejoin="round" stroke-miterlimit="10" x1="66.5" y1="141.099" x2="66.5" y2="147.099"/>
		
			<line fill="none" stroke="#FFFFFF" stroke-linecap="round" stroke-linejoin="round" stroke-miterlimit="10" x1="70.5" y1="134.099" x2="70.5" y2="140.099"/>
		
			<line fill="none" stroke="#FFFFFF" stroke-linecap="round" stroke-linejoin="round" stroke-miterlimit="10" x1="75.5" y1="141.099" x2="75.5" y2="147.099"/>
		
			<line fill="none" stroke="#FFFFFF" stroke-linecap="round" stroke-linejoin="round" stroke-miterlimit="10" x1="96.5" y1="141.099" x2="96.5" y2="147.099"/>
		
			<line fill="none" stroke="#FFFFFF" stroke-linecap="round" stroke-linejoin="round" stroke-miterlimit="10" x1="101.5" y1="134.099" x2="101.5" y2="140.099"/>
		
			<line fill="none" stroke="#FFFFFF" stroke-linecap="round" stroke-linejoin="round" stroke-miterlimit="10" x1="106.5" y1="141.099" x2="106.5" y2="147.099"/>
		
			<line fill="none" stroke="#FFFFFF" stroke-linecap="round" stroke-linejoin="round" stroke-miterlimit="10" x1="91.5" y1="140.099" x2="91.5" y2="134.099"/>
		
			<line fill="none" stroke="#FFFFFF" stroke-linecap="round" stroke-linejoin="round" stroke-miterlimit="10" x1="86.5" y1="147.099" x2="86.5" y2="141.099"/>
		
			<line fill="none" stroke="#FFFFFF" stroke-linecap="round" stroke-linejoin="round" stroke-miterlimit="10" x1="112.5" y1="134.099" x2="112.5" y2="140.099"/>
		
			<line fill="none" stroke="#FFFFFF" stroke-linecap="round" stroke-linejoin="round" stroke-miterlimit="10" x1="117.5" y1="147.099" x2="117.5" y2="141.099"/>
		
			<line fill="none" stroke="#FFFFFF" stroke-linecap="round" stroke-linejoin="round" stroke-miterlimit="10" x1="81.5" y1="140.099" x2="81.5" y2="134.099"/>
	</g>
</g>
<g>
	<path fill="none" stroke="#FFFFFF" stroke-width="3" stroke-linecap="round" stroke-linejoin="round" stroke-miterlimit="10" d="
		M173.5,119.068l9.883,0.073l5.117-5.823v-19l-40-21c0,0,2.03-13.587,2.337-28.235c0.413-19.736-27.664-30.861-27.664-30.861
		s3.078,14.616,2.327,33.877c-1.024,26.25,10,25.007,10,25.007l-1,79.713l6.218,12.201l5.418-12.201l7.774,12.201l5.595-12.201
		l6.874,12.201l5.651-12.201L173.5,119.068z"/>
	
		<polygon fill="none" stroke="#FFFFFF" stroke-width="3" stroke-linecap="round" stroke-linejoin="round" stroke-miterlimit="10" points="
		165.847,90.146 176.399,96.176 165.847,102.206 155.796,96.176 	"/>
	<path fill="none" stroke="#FFFFFF" stroke-width="3" stroke-linecap="round" stroke-linejoin="round" stroke-miterlimit="10" d="
		M131,44.818c0.531-10.722-0.524-20.472-0.524-20.472c0.001,0,14.476,9.244,14.524,22.096c0.044,11.656-3.762,21.906-3.762,21.906
		S129.917,66.683,131,44.818z"/>
	<circle fill="#FFFFFF" stroke="#FFFFFF" stroke-miterlimit="10" cx="165.844" cy="96.44" r="3.007"/>
	
		<line fill="none" stroke="#FFFFFF" stroke-width="3" stroke-linecap="round" stroke-linejoin="round" stroke-miterlimit="10" x1="183.7" y1="92.385" x2="188.5" y2="98.441"/>
	<g>
		
			<line fill="none" stroke="#FFFFFF" stroke-linecap="round" stroke-linejoin="round" stroke-miterlimit="10" x1="140.5" y1="141.099" x2="140.5" y2="147.099"/>
		
			<line fill="none" stroke="#FFFFFF" stroke-linecap="round" stroke-linejoin="round" stroke-miterlimit="10" x1="145.5" y1="134.099" x2="145.5" y2="140.099"/>
		
			<line fill="none" stroke="#FFFFFF" stroke-linecap="round" stroke-linejoin="round" stroke-miterlimit="10" x1="150.5" y1="141.099" x2="150.5" y2="147.099"/>
		
			<line fill="none" stroke="#FFFFFF" stroke-linecap="round" stroke-linejoin="round" stroke-miterlimit="10" x1="166.5" y1="140.099" x2="166.5" y2="134.099"/>
		
			<line fill="none" stroke="#FFFFFF" stroke-linecap="round" stroke-linejoin="round" stroke-miterlimit="10" x1="161.5" y1="147.099" x2="161.5" y2="141.099"/>
		
			<line fill="none" stroke="#FFFFFF" stroke-linecap="round" stroke-linejoin="round" stroke-miterlimit="10" x1="156.5" y1="140.099" x2="156.5" y2="134.099"/>
	</g>
</g>
<text transform="matrix(1 0 0 1 55.335 202.6797)"><tspan x="0" y="0" fill="#FFFFFF" stroke="#FFFFFF" font-family="'Futura-Oblique'" font-size="35.3089">WOL</tspan><tspan x="81.209" y="0" fill="#FFFFFF" stroke="#FFFFFF" font-family="'Futura-Oblique'" font-size="35.3089" letter-spacing="3">F</tspan><tspan x="101.477" y="0" fill="#FFFFFF" stroke="#FFFFFF" font-family="'Futura-Oblique'" font-size="20.1765">&amp;</tspan><tspan x="0" y="39.379" fill="#FFFFFF" stroke="#FFFFFF" font-family="'Futura-Oblique'" font-size="39">RABBIT</tspan></text>
</svg>
